<svg xmlns="http://www.w3.org/2000/svg" version="1.1" viewBox="-5.0 -10.0 110.0 135.0">
 <path d="m49.148 23.293 0.43359-2.293-1.6016 1.6992c-0.23438 0.24609-0.57812 0.35938-0.91406 0.29688l-2.293-0.43359 1.6992 1.5977c0.25 0.23438 0.35938 0.57812 0.29688 0.91406l-0.43359 2.293 1.6016-1.6992c0.23438-0.24609 0.57812-0.35938 0.91016-0.29688l2.293 0.43359-1.6953-1.5977c-0.25-0.23438-0.36328-0.57812-0.29687-0.91406zm-17.984 13.047-0.43359 2.2969c-0.12891 0.67188 0.097656 1.3594 0.59375 1.8281l1.6992 1.6016-2.2969-0.43359c-0.67187-0.125-1.3594 0.097657-1.8281 0.59375l-1.6016 1.7031 0.43359-2.2969c0.125-0.67187-0.097657-1.3594-0.59375-1.8281l-1.7031-1.6055 2.3008 0.43359c0.66797 0.12891 1.3594-0.09375 1.8242-0.59375zm37.953 29.73-0.73438 3.8789c-0.19141 1.0039 0.14453 2.0391 0.89063 2.7383l2.8711 2.707-3.8789-0.73047c-1.0039-0.19141-2.0391 0.14453-2.7383 0.89063l-2.707 2.8711 0.73047-3.8789c0.19141-1.0039-0.14453-2.0391-0.89062-2.7383l-2.8711-2.7109 3.8789 0.73438c1.0039 0.19141 2.0391-0.14453 2.7422-0.89062zm-26.344-40.684-0.91406 4.8359c-0.19141 1.0039 0.14453 2.0391 0.89062 2.7383l3.5781 3.375-4.832-0.91406c-1.0078-0.1875-2.0391 0.14844-2.7422 0.89062l-3.375 3.582 0.91406-4.8359c0.19141-1.0039-0.14453-2.0391-0.89062-2.7383l-3.582-3.375 4.8359 0.91406c1.0078 0.1875 2.0391-0.14844 2.7422-0.89062zm-16.43 6.707h8.0508l0.4375 0.41016c0.45703 0.43359 0.76172 0.99219 0.88281 1.5898h-9.3711c-1.6133 0-3.0703 0.97266-3.6914 2.4609l-12.34 29.617c-1.0977 2.6328 0.83984 5.5352 3.6953 5.5352h47.762l0.30859 0.28906c0.48828 0.46094 0.80078 1.0664 0.90234 1.7109h-48.973c-4.2812 0-7.1875-4.3555-5.5391-8.3047l12.34-29.617c0.92969-2.2344 3.1133-3.6914 5.5352-3.6914zm58.672 2h-40.297l-1.3984-1.3164c-0.21484-0.20312-0.39453-0.43359-0.53906-0.68359h42.234c4.2812 0 7.1836 4.3555 5.5391 8.3086l-12.34 29.613c-0.93359 2.2383-3.1172 3.6914-5.5391 3.6914h-1.5312l-1.2852-1.207c-0.24609-0.23438-0.44531-0.5-0.59766-0.79297h3.4141c1.6133 0 3.0703-0.96875 3.6914-2.4609l12.34-29.613c1.0977-2.6367-0.83594-5.5391-3.6914-5.5391z" fill-rule="evenodd"/>
<text x="0.0" y="117.5" font-size="5.0" font-weight="bold" font-family="Arbeit Regular, Helvetica, Arial-Unicode, Arial, Sans-serif" fill="#000000">Created by Esya Am</text><text x="0.0" y="122.5" font-size="5.0" font-weight="bold" font-family="Arbeit Regular, Helvetica, Arial-Unicode, Arial, Sans-serif" fill="#000000">from Noun Project</text></svg>