<svg xmlns="http://www.w3.org/2000/svg" version="1.1" viewBox="-5.0 -10.0 110.0 135.0">
 <path d="m41.477 30.199h-0.050781l-2.1016-0.67578c-0.14844-0.050782-0.25-0.14844-0.27344-0.30078l-0.52344-2.8984-1.25 2.8984c-0.050782 0.125-0.17578 0.25-0.32422 0.27344l-3.0234 0.89844 2.8008 0.89844c0.125 0.023437 0.22656 0.14844 0.25 0.30078l0.52344 2.8984 1.25-2.8984c0.074219-0.14844 0.17578-0.25 0.35156-0.30078l3-0.89844-0.625-0.19922zm0.25-0.875c1.7734-0.25 3.6016-0.44922 5.4492-0.60156 1.8516-0.125 3.75-0.19922 5.6484-0.19922 10.102 0 19.023 1.9492 25.273 5.0742 6.3516 3.1758 9.9492 7.6016 9.3242 12.551-0.19922 1.6484-0.875 3.25-1.9492 4.75 0.69922 1.5234 0.94922 3.125 0.75 4.7734-0.32422 2.6484-1.875 5.1758-4.3516 7.4258-2.2734 2.1016-5.3516 3.9492-9.0234 5.5l1.8516 0.57422c0.22656 0.074219 0.32422 0.32422 0.22656 0.55078-0.074219 0.14844-0.19922 0.25-0.35156 0.30078l-4.1992 1.25-1.75 4.0508c-0.10156 0.22656-0.375 0.35156-0.60156 0.30078-0.125-0.050781-0.22656-0.17578-0.25-0.30078l-0.72656-4.0508-1.1016-0.35156c-2.8242 0.75-5.875 1.3516-9.0508 1.75-3.125 0.39844-6.3984 0.60156-9.7266 0.60156-10.102 0-19.023-1.9258-25.273-5.0742-6.3516-3.1758-9.9492-7.6016-9.3242-12.523 0.19922-1.6484 0.875-3.25 1.9492-4.7734-0.69922-1.5-0.94922-3.1016-0.75-4.75 0.42578-3.3242 2.6758-6.3984 6.2734-9.0234 3.3516-2.4492 7.875-4.5 13.125-6l-0.92578-0.30078c-0.22656-0.074219-0.32422-0.32422-0.22656-0.55078 0.050781-0.14844 0.17578-0.25 0.32422-0.30078l4.1992-1.25 1.7734-4.0508c0.10156-0.22656 0.35156-0.35156 0.57422-0.30078 0.14844 0.050781 0.25 0.17578 0.27344 0.30078l0.72656 4.0508 1.8242 0.60156zm5.3984 0.30078c-1.1758 0.074219-2.3242 0.17578-3.4492 0.32422l0.125 0.023437c0.22656 0.074219 0.32422 0.32422 0.22656 0.55078-0.074219 0.14844-0.19922 0.25-0.35156 0.30078l-4.1992 1.25-1.75 4.0508c-0.10156 0.22656-0.375 0.375-0.60156 0.30078-0.14844-0.050781-0.22656-0.17578-0.25-0.30078l-0.72656-4.0508-1.4766-0.47656c-5.7266 1.4766-10.625 3.625-14.148 6.1992-3.375 2.4766-5.4766 5.3242-5.875 8.3516-0.14844 1.3242 0.023437 2.6484 0.52344 3.8984 2.1758-2.6484 5.6016-5 9.8984-6.9258 7.0234-3.125 16.426-5.0742 26.551-5.0742 10.102 0 19.023 1.9492 25.273 5.0742 3.8008 1.9258 6.625 4.2734 8.1484 6.9258 0.80078-1.25 1.3242-2.5742 1.5-3.8984 0.57422-4.5742-2.875-8.7266-8.9258-11.75-6.1484-3.0742-14.926-4.9766-24.926-4.9766-1.875 0-3.75 0.050781-5.5742 0.19922zm37.699 22.125c-2.1758 2.6484-5.6016 5.0234-9.8984 6.9258-7.0234 3.1484-16.426 5.0742-26.551 5.0742-10.102 0-19.023-1.9258-25.273-5.0742-3.8008-1.8984-6.625-4.2734-8.1484-6.9258-0.80078 1.25-1.3242 2.5742-1.5 3.9258-0.57422 4.5508 2.875 8.6992 8.9258 11.727 6.1484 3.1016 14.926 5 24.926 5 3.3008 0 6.5234-0.22656 9.6016-0.60156 2.625-0.32422 5.125-0.80078 7.5234-1.375l-1.2734-0.39844c-0.22656-0.074219-0.32422-0.32422-0.22656-0.55078 0.050781-0.14844 0.19922-0.25 0.32422-0.30078l4.2266-1.25 1.75-4.0508c0.10156-0.22656 0.35156-0.375 0.57422-0.30078 0.14844 0.050781 0.25 0.17578 0.27344 0.30078l0.72656 4.0508 0.80078 0.25c4-1.5508 7.3242-3.5 9.7266-5.6758 2.3008-2.1016 3.6992-4.3984 4.0234-6.8242 0.14844-1.3516-0.023438-2.6758-0.52344-3.9258zm-10.176 6.125c4.3516-1.9258 7.75-4.3242 9.8008-6.9766-1.375-2.6484-4.1758-5.0234-8.0234-6.9766-6.1484-3.0742-14.926-4.9766-24.926-4.9766-9.9766 0-19.25 1.8984-26.148 4.9766-4.3516 1.9492-7.75 4.3242-9.8008 6.9766 1.375 2.6484 4.1758 5.0508 8.0234 6.9766 6.1484 3.0742 14.926 5 24.926 5 9.9766 0 19.25-1.9258 26.148-5zm-4.6992 10.551-0.52344-2.9258-1.25 2.8984c-0.050781 0.14844-0.17578 0.25-0.32422 0.30078l-3.0234 0.89844 2.8008 0.89844c0.125 0.023437 0.22656 0.125 0.25 0.27344l0.52344 2.8984 1.25-2.875c0.074218-0.14844 0.17578-0.27344 0.35156-0.30078l3-0.89844-2.7734-0.89844c-0.125-0.023437-0.25-0.14844-0.27344-0.27344z"/>
<text x="0.0" y="117.5" font-size="5.0" font-weight="bold" font-family="Arbeit Regular, Helvetica, Arial-Unicode, Arial, Sans-serif" fill="#000000">Created by Wawan Waluyo</text><text x="0.0" y="122.5" font-size="5.0" font-weight="bold" font-family="Arbeit Regular, Helvetica, Arial-Unicode, Arial, Sans-serif" fill="#000000">from Noun Project</text></svg>