<svg xmlns="http://www.w3.org/2000/svg" data-name="Layer 1" viewBox="0 0 150 187.5" x="0px" y="0px"><defs><style>.cls-1{fill:#231f20;}</style></defs><title>icons</title><path class="cls-1" d="M56.82,81c-2.35.48-4.7,1-7.06,1.45a33,33,0,0,1-7.46.81,3.31,3.31,0,0,1-2.78-1.53A8.16,8.16,0,0,1,38,77.9a34.76,34.76,0,0,0-1.1-5.37,2.89,2.89,0,0,1,.65-2.63c.18-.27.37-.52.49-.7,3.31-.49,6.55-1,9.78-1.47,2.33-.37,4.65-.82,7-1.17,1-.15,2-.11,3-.2.75-.07,1.49-.2,2.42-.33-.89-.91-1.63-1.64-2.35-2.39-4-4.19-8-8.39-12-12.56a1,1,0,0,1-.25-1.23C46,48.52,47,47.6,47.72,46.5a4.24,4.24,0,0,1,2.78-1.37c1.41-.31,2.85-.51,4.23-.9a2.89,2.89,0,0,1,3,.63c1.16,1.09,2.26,2.24,3.37,3.39A14.19,14.19,0,0,1,62,49.37l.3-.16c0-.25.06-.49.05-.74a46.73,46.73,0,0,1,.39-9.24,4,4,0,0,0-.12-1.52.69.69,0,0,1,.46-.9c.42-.19.81-.45,1.28-.71l8.09,1a10.47,10.47,0,0,1,1.41.3,2.65,2.65,0,0,1,1.81,1.72,13.7,13.7,0,0,1,.62,5.29c0,4.34,0,8.68-.07,13,0,.33,0,.67,0,1.23A5.77,5.77,0,0,0,77,58q4.27-5.11,8.52-10.24L94,37.59c1.12.58,2.32.49,3.23,1.37a2.61,2.61,0,0,1,.94,2.57,2.29,2.29,0,0,0,.38,1.88,4.58,4.58,0,0,1,.44.91,1,1,0,0,1-.46,1.34,13.85,13.85,0,0,0-1.91,1.55,3.49,3.49,0,0,0-.81,1c-1.7,3.52-4.37,6.35-6.7,9.42-.7.92-1.47,1.79-2.17,2.71a11.44,11.44,0,0,0-.75,1.39c1.14-.13,2-.21,2.89-.34l16.74-2.54c.46-.07,1-.36,1.34-.18a4.32,4.32,0,0,1,1.62,1.53,1.09,1.09,0,0,0,1,.66,3.27,3.27,0,0,1,2.67,2.36,40.62,40.62,0,0,1,1.12,4.63c.12.56.18,1.14.26,1.7.21,1.37-.3,1.91-1.67,2.06-2.44.26-4.89.51-7.3,1-5.11,1-10.19,2.06-15.29,3.1a4,4,0,0,0-.47.17,6.73,6.73,0,0,0,.66,1,133.42,133.42,0,0,0,11.51,10.82c1.09.87,2.22,1.7,3.26,2.63a5.21,5.21,0,0,1,1.06,1.52,1.19,1.19,0,0,1,0,1c-1.31,2.49-2.77,4.9-5.24,6.41a4.48,4.48,0,0,1-3.94.63,3.16,3.16,0,0,0-1.69,0,1.44,1.44,0,0,1-1.52-.53C90.57,96.6,88,93.85,85.32,91.2c-2-1.93-4-3.73-6.06-5.59C78.6,85,78,84.38,77.07,83.55c0,1.26-.07,2.2,0,3.13.44,4.8.92,9.6,1.39,14.41a6.67,6.67,0,0,1,.17,1.41,2.45,2.45,0,0,1-1.8,1.87c-1.56.63-3.19,1.1-4.73,1.75a2.81,2.81,0,0,1-2.61-.18c-.46-.25-.89-.54-1.38-.83l-2-17.36a8,8,0,0,0-.72.75q-3.5,4.89-7,9.79-2.42,3.43-4.78,6.9a2.83,2.83,0,0,1-3.7,1.24,19,19,0,0,1-6.06-3.33,5.28,5.28,0,0,1-.75-.68,2,2,0,0,1,0-2.91,76.26,76.26,0,0,0,5.52-7c1.82-2.71,3.92-5.22,5.87-7.84.83-1.11,1.59-2.26,2.38-3.39ZM72.57,97.82a5.51,5.51,0,0,0,.62,3.76Z"/><text x="0" y="165" fill="#000000" font-size="5px" font-weight="bold" font-family="'Helvetica Neue', Helvetica, Arial-Unicode, Arial, Sans-serif">Created by Lesley Hunt</text><text x="0" y="170" fill="#000000" font-size="5px" font-weight="bold" font-family="'Helvetica Neue', Helvetica, Arial-Unicode, Arial, Sans-serif">from the Noun Project</text></svg>