<svg xmlns="http://www.w3.org/2000/svg" version="1.1" viewBox="-5.0 -10.0 110.0 135.0">
 <path d="m10 53.676c5.2734-0.10156 10.551-0.27344 15.824-0.60156 12.699-0.72656 14.926-0.92578 17.176-5.8516-1.4258-0.10156-3.0742-0.19922-4.9492-0.30078-5.1758-0.32422-10.375-0.5-15.602-0.60156 5.25-0.10156 10.523-0.30078 15.824-0.60156 2.1016-0.125 3.9258-0.22656 5.5-0.35156 0.19922-0.52344 0.42578-1.0742 0.64844-1.6992 1.125-2.9766 2.0508-5.9766 2.7734-8.9766-0.39844 3-0.625 6-0.625 8.9766v1.4492c7.1758-0.77344 7.8242-2.3008 10.301-8.8008 1.125-3 2.0234-5.9766 2.7734-8.9766-0.39844 3-0.625 5.9766-0.625 8.9766 0 8.4258 0.125 8.5 15.023 9.3984 5.2734 0.30078 10.602 0.5 15.949 0.60156-5.375 0.074219-10.773 0.27344-16.199 0.60156-12.699 0.72656-14.898 0.92578-17.148 5.8516 1.4258 0.10156 3.0742 0.19922 4.9492 0.30078 5.2734 0.32422 10.602 0.52344 15.949 0.60156-5.375 0.10156-10.773 0.30078-16.176 0.60156-2.1016 0.125-3.9258 0.25-5.5 0.35156-0.19922 0.52344-0.42578 1.1016-0.64844 1.6992-1.1484 2.9766-2.0508 5.9766-2.7734 8.9766 0.39844-3 0.625-6 0.625-8.9766v-1.4492c-7.1758 0.77344-7.8242 2.3008-10.301 8.8008-1.125 3-2.0508 5.9766-2.7734 8.9766 0.39844-3 0.625-5.9766 0.625-8.9766 0-8.4258-0.125-8.5-15.023-9.3984-5.1758-0.30078-10.375-0.5-15.602-0.60156zm36.676-6.1016c0.32422 3.1758 1.5234 4.25 6.3008 4.8516-0.32422-3.1758-1.5508-4.25-6.3008-4.8516z" fill-rule="evenodd"/>
<text x="0.0" y="117.5" font-size="5.0" font-weight="bold" font-family="Arbeit Regular, Helvetica, Arial-Unicode, Arial, Sans-serif" fill="#000000">Created by Pokas Official</text><text x="0.0" y="122.5" font-size="5.0" font-weight="bold" font-family="Arbeit Regular, Helvetica, Arial-Unicode, Arial, Sans-serif" fill="#000000">from Noun Project</text></svg>